<svg width="64" height="64" viewBox="0 0 64 64" fill="none" xmlns="http://www.w3.org/2000/svg">
<circle cx="32" cy="32" r="32" fill="#EDFCF4"/>
<path d="M29.0078 20.625C28.6753 21.7275 28.5 22.9175 28.5 24.125H21.2373L19.418 29.375H29.6904C31.0029 32.1399 33.3302 34.3274 36.1826 35.4824C35.7626 35.9549 35.5 36.5675 35.5 37.25C35.5 38.7025 36.6725 39.875 38.125 39.875C39.5775 39.875 40.75 38.7025 40.75 37.25C40.75 36.9525 40.6978 36.655 40.5928 36.375C42.2202 36.3925 44.1626 36.077 46 35.1846V46C46 47.4525 44.81 48.625 43.375 48.625C41.94 48.625 40.75 47.4525 40.75 46V45.125H19.75V46C19.75 47.4525 18.5775 48.625 17.125 48.625C15.6725 48.625 14.5 47.4525 14.5 46V33.4697C14.5 33.0675 14.57 32.6827 14.6924 32.3154L18.1396 22.3926C18.5071 21.3601 19.47 20.625 20.625 20.625H29.0078ZM22.375 34.625C20.9225 34.625 19.75 35.7975 19.75 37.25C19.75 38.7025 20.9225 39.875 22.375 39.875C23.8275 39.875 25 38.7025 25 37.25C25 35.7975 23.8275 34.625 22.375 34.625ZM40.75 15.375C45.58 15.375 49.5 19.295 49.5 24.125C49.5 28.955 45.58 32.875 40.75 32.875C35.92 32.875 32 28.955 32 24.125C32 19.295 35.92 15.375 40.75 15.375ZM44.502 21.4424C44.1941 21.1653 43.7195 21.1902 43.4424 21.498L39.4707 25.9102L37.5303 23.9697L37.4736 23.918C37.1791 23.6777 36.7443 23.6951 36.4697 23.9697C36.1768 24.2626 36.1768 24.7374 36.4697 25.0303L38.9697 27.5303C39.1152 27.6757 39.3139 27.7554 39.5195 27.75C39.7252 27.7446 39.92 27.6549 40.0576 27.502L44.5576 22.502C44.8347 22.1941 44.8098 21.7195 44.502 21.4424Z" fill="#18BF81"/>
</svg>
