<svg width="24" height="24" viewBox="0 0 24 24"  fill="black" xmlns="http://www.w3.org/2000/svg">
<path d="M4 6L12 11L20 6H4ZM4 20C3.45 20 2.97933 19.8043 2.588 19.413C2.19667 19.0217 2.00067 18.5507 2 18V6C2 5.45 2.196 4.97933 2.588 4.588C2.98 4.19667 3.45067 4.00067 4 4H20C20.55 4 21.021 4.196 21.413 4.588C21.805 4.98 22.0007 5.45067 22 6V11C22 11.2833 21.904 11.521 21.712 11.713C21.52 11.905 21.2827 12.0007 21 12C20.7173 11.9993 20.48 11.9033 20.288 11.712C20.096 11.5207 20 11.2833 20 11V8L12.525 12.675C12.475 12.7083 12.3 12.7583 12 12.825C11.9167 12.825 11.8293 12.8127 11.738 12.788C11.6467 12.7633 11.559 12.7257 11.475 12.675L4 8V18H9.5C9.78333 18 10.021 18.096 10.213 18.288C10.405 18.48 10.5007 18.7173 10.5 19C10.4993 19.2827 10.4033 19.5203 10.212 19.713C10.0207 19.9057 9.78333 20.0013 9.5 20H4ZM15.95 19.2L20.9 14.25C21.0833 14.0667 21.3167 13.975 21.6 13.975C21.8833 13.975 22.1167 14.0667 22.3 14.25C22.4833 14.4333 22.575 14.6667 22.575 14.95C22.575 15.2333 22.4833 15.4667 22.3 15.65L16.65 21.3C16.45 21.5 16.2167 21.6 15.95 21.6C15.6833 21.6 15.45 21.5 15.25 21.3L12.4 18.45C12.2167 18.2667 12.125 18.0333 12.125 17.75C12.125 17.4667 12.2167 17.2333 12.4 17.05C12.5833 16.8667 12.8167 16.775 13.1 16.775C13.3833 16.775 13.6167 16.8667 13.8 17.05L15.95 19.2Z" />
</svg>
