<svg width="64" height="64" viewBox="0 0 64 64" fill="none" xmlns="http://www.w3.org/2000/svg">
<circle cx="32" cy="32" r="32" fill="#BED6FF"/>
<path d="M32 14.7823C24.65 14.7823 18 20.4173 18 29.1323C18 34.6973 22.2875 41.2423 30.845 48.7848C31.51 49.3623 32.5075 49.3623 33.1725 48.7848C41.7125 41.2423 46 34.6973 46 29.1323C46 20.4173 39.35 14.7823 32 14.7823ZM32 32.2823C30.075 32.2823 28.5 30.7073 28.5 28.7823C28.5 26.8573 30.075 25.2823 32 25.2823C33.925 25.2823 35.5 26.8573 35.5 28.7823C35.5 30.7073 33.925 32.2823 32 32.2823Z" fill="#336FFA"/>
</svg>
