<svg width="24" height="24" viewBox="0 0 24 24"  fill="black" xmlns="http://www.w3.org/2000/svg">
<path d="M12 21.325C11.7667 21.325 11.5333 21.2833 11.3 21.2C11.0667 21.1167 10.8583 20.9917 10.675 20.825C9.59167 19.825 8.63333 18.85 7.8 17.9C6.96667 16.95 6.271 16.0293 5.713 15.138C5.155 14.2467 4.73 13.3883 4.438 12.563C4.146 11.7377 4 10.95 4 10.2C4 7.7 4.80433 5.70833 6.413 4.225C8.02167 2.74167 9.884 2 12 2C14.116 2 15.9787 2.74167 17.588 4.225C19.1973 5.70833 20.0013 7.7 20 10.2C20 10.95 19.8543 11.7377 19.563 12.563C19.2717 13.3883 18.8467 14.2467 18.288 15.138C17.7293 16.0293 17.0333 16.95 16.2 17.9C15.3667 18.85 14.4083 19.825 13.325 20.825C13.1417 20.9917 12.9333 21.1167 12.7 21.2C12.4667 21.2833 12.2333 21.325 12 21.325ZM12 12C12.55 12 13.021 11.8043 13.413 11.413C13.805 11.0217 14.0007 10.5507 14 10C13.9993 9.44933 13.8037 8.97867 13.413 8.588C13.0223 8.19733 12.5513 8.00133 12 8C11.4487 7.99867 10.978 8.19467 10.588 8.588C10.198 8.98133 10.002 9.452 10 10C9.998 10.548 10.194 11.019 10.588 11.413C10.982 11.807 11.4527 12.0027 12 12Z" />
</svg>
