<svg xmlns="http://www.w3.org/2000/svg" width="80" height="28" viewBox="0 0 80 28" fill="none">
  <g clip-path="url(#clip0_11742_3330)">
    <path d="M66.8633 19.5048C67.8122 19.1489 69.5322 19.5937 69.8881 21.1061C70.2143 22.5295 69.117 23.5674 68.4646 23.8343C66.9819 24.5757 64.6096 24.9316 62.6227 24.9316C60.5172 24.9316 58.1745 24.4571 57.018 23.953C56.247 23.5674 55.1201 22.7964 54.7939 21.462C54.2601 19.06 54.4381 13.989 54.7939 12.0319C55.0015 10.9346 55.7725 9.68915 57.018 9.68915H67.1895C68.1088 9.68915 69.0874 10.7567 69.0874 11.9725C69.0874 12.9808 68.2867 14.3449 67.1895 14.3449H60.1021C59.4793 14.3449 59.4497 14.7008 59.42 14.9083C59.3311 16.3021 59.2717 17.429 59.42 19.06C59.4497 19.5344 59.7166 19.831 60.3393 19.9793C61.1103 20.0979 61.7627 20.1868 62.7413 20.1868C64.5206 20.1868 66.0033 19.831 66.8633 19.5048ZM67.4267 8.11746H56.5435C55.6539 8.11746 54.8236 7.13886 54.8236 5.77475C54.8236 4.49961 55.6242 3.43205 56.5435 3.43205H67.4267C68.3164 3.43205 69.2653 4.58857 69.2653 5.7451C69.2653 6.75335 68.5833 8.11746 67.4267 8.11746ZM78.1024 15.2642H76.2045C76.1748 19.4751 76.0265 23.4488 75.8783 25.0205C75.7003 26.2067 74.4548 27.1853 73.1797 27.0667C71.7266 26.9184 70.8667 25.7619 70.926 24.5757C71.3115 20.0682 71.3708 8.7402 70.926 4.17341C70.748 2.92792 71.9046 1.74174 73.0907 1.62312C74.4548 1.47485 75.7003 2.39414 75.8783 3.63963C76.0562 5.06305 76.1748 7.64299 76.2045 10.5788H78.1024C79.1403 10.5788 80.0002 11.765 80.0002 12.9215C80.0002 13.9297 79.3182 15.2642 78.1024 15.2642Z" fill="#FF7700"/>
    <path d="M41.5454 9.89635H37.5123V10.5191C37.5123 17.4582 35.1696 21.8175 30.5732 24.3381C29.7725 24.7829 28.1119 24.7236 27.4002 23.4485C26.7478 22.2623 27.2519 20.7499 28.2601 20.0975C31.3146 18.081 32.5007 15.8866 32.5304 10.1929V9.89635H29.2387C28.1119 9.89635 27.5188 8.5619 27.5188 7.55364C27.5188 6.57504 28.2008 5.21094 29.2387 5.21094H32.5304V2.77927C32.5304 1.88964 33.4793 1 34.9028 1C36.3558 1 37.5123 1.71171 37.5123 2.77927V5.21094H41.5454C42.435 5.21094 43.2357 6.36746 43.2357 7.52399C43.2357 8.53224 42.6722 9.89635 41.5454 9.89635ZM41.2785 18.3479L43.3246 20.6016C44.0956 21.5506 43.7991 23.1223 42.8205 23.8636C41.7233 24.7236 40.1516 24.427 39.3806 23.4781L37.3048 21.2244C36.7413 20.5127 36.5634 18.9706 37.8385 17.9624C38.8765 17.1617 40.4481 17.2803 41.2785 18.3479ZM50.0562 3.63925C50.6196 7.70191 50.3824 21.7285 50.0562 25.0201C49.8783 26.2063 48.6328 27.1849 47.3576 27.0663C45.9046 26.918 45.0446 25.7615 45.1039 24.5753C45.4894 20.0678 45.5487 8.73982 45.1039 4.17303C44.926 2.92754 46.0825 1.74136 47.2687 1.62275C48.6328 1.47447 49.8783 2.39376 50.0562 3.63925Z" fill="#FF7700"/>
    <path d="M11.2737 3.4617C13.2605 3.4617 14.7432 4.85546 14.7432 7.10921V8.32504C14.7432 17.3104 9.16819 23.1819 2.76282 24.4571C1.75456 24.6647 0.093913 24.0419 0.00494955 22.3516C-0.084014 20.8689 1.04286 19.9793 2.05111 19.6531C6.46963 18.1703 9.82059 15.027 9.82059 9.18502C9.82059 8.29539 9.73162 8.14711 8.54544 8.14711H2.11042C1.36906 8.14711 0.212531 7.3761 0.212531 5.80441C0.212531 4.29203 1.42837 3.4617 2.22904 3.4617H11.2737ZM24.4402 15.2642H22.5424C22.5127 19.4751 22.3644 23.4488 22.2162 25.0205C22.0382 26.2067 20.7927 27.1853 19.5176 27.0667C18.0645 26.9184 17.2046 25.7619 17.2639 24.5757C17.6494 20.0682 17.7087 8.7402 17.2639 4.17341C17.0859 2.92792 18.2425 1.74174 19.4286 1.62312C20.7927 1.47485 22.0382 2.39414 22.2162 3.63963C22.3941 5.06305 22.5127 7.64299 22.5424 10.5788H24.4402C25.4782 10.5788 26.3381 11.765 26.3381 12.9215C26.3381 13.9297 25.6561 15.2642 24.4402 15.2642Z" fill="#FF7700"/>
  </g>
  <defs>
    <clipPath id="clip0_11742_3330">
      <rect width="80" height="28" fill="white"/>
    </clipPath>
  </defs>
</svg>