<svg width="32" height="32" viewBox="0 0 32 32" fill="none" xmlns="http://www.w3.org/2000/svg">
<rect x="0.5" y="0.5" width="31" height="31" rx="15.5" fill="#FFAA32"/>
<rect x="0.5" y="0.5" width="31" height="31" rx="15.5" stroke="white"/>
<path d="M9.25 20V19.0625L12.1914 16.0977C13.1172 15.125 13.5859 14.5859 13.5859 13.8477C13.5859 13.0156 12.9062 12.4766 12.0156 12.4766C11.0781 12.4766 10.4688 13.0742 10.4688 13.9766H9.25C9.23828 12.4297 10.4219 11.3984 12.0391 11.3984C13.6797 11.3984 14.8047 12.4297 14.8164 13.8125C14.8047 14.7617 14.3594 15.5117 12.7656 17.082L11.043 18.8281V18.8984H14.957V20H9.25ZM19.3398 20.1172C17.3711 20.1172 16.2227 18.5352 16.2227 15.7578C16.2227 13.0039 17.3945 11.3984 19.3398 11.3984C21.2852 11.3984 22.457 13.0039 22.457 15.7578C22.457 18.5352 21.2969 20.1172 19.3398 20.1172ZM19.3398 19.0039C20.4883 19.0039 21.168 17.8789 21.168 15.7578C21.168 13.6484 20.4766 12.4883 19.3398 12.4883C18.2031 12.4883 17.5117 13.6484 17.5117 15.7578C17.5117 17.8789 18.1914 19.0039 19.3398 19.0039Z" fill="white"/>
</svg>
