<svg width="32" height="32" viewBox="0 0 32 32" fill="none" xmlns="http://www.w3.org/2000/svg">
<rect x="0.5" y="0.5" width="31" height="31" rx="15.5" fill="#F14251"/>
<rect x="0.5" y="0.5" width="31" height="31" rx="15.5" stroke="white"/>
<path d="M11.2188 14.2344V15.6523H15.4609V16.5664H5.88672V15.6523H10.1172V14.2344H11.2188ZM10.668 17.3281C12.9414 17.3281 14.2891 17.9727 14.2891 19.1562C14.2891 20.3281 12.9414 20.9844 10.668 20.9727C8.38281 20.9844 7.02344 20.3281 7.02344 19.1562C7.02344 17.9727 8.38281 17.3281 10.668 17.3281ZM10.668 18.1836C9.05078 18.1836 8.14844 18.5234 8.14844 19.1562C8.14844 19.7891 9.05078 20.1289 10.668 20.1289C12.2617 20.1289 13.1758 19.7891 13.1758 19.1562C13.1758 18.5234 12.2617 18.1836 10.668 18.1836ZM14.6055 10.9766V11.8672H11.418C11.5762 12.8691 13.0645 13.7188 14.9688 13.9062L14.5703 14.7852C12.7422 14.5742 11.2422 13.8242 10.668 12.7109C10.0938 13.8242 8.59375 14.5742 6.77734 14.7852L6.37891 13.9062C8.27148 13.7188 9.75977 12.8809 9.91797 11.8672H6.76562V10.9766H14.6055ZM25.8672 18.8047V19.7422H16.2578V18.8047H18.8828V16.9531H17.4297V13.6133H23.5938V12.1484H17.4062V11.2344H24.6953V14.5156H18.5312V16.0391H24.9414V16.9531H23.3477V18.8047H25.8672ZM19.9609 18.8047H22.2578V16.9531H19.9609V18.8047Z" fill="white"/>
</svg>
