<svg width="32" height="32" viewBox="0 0 32 32" fill="none" xmlns="http://www.w3.org/2000/svg">
<rect x="0.5" y="0.5" width="31" height="31" rx="15.5" fill="#FF7700"/>
<rect x="0.5" y="0.5" width="31" height="31" rx="15.5" stroke="white"/>
<path d="M16 25.325C15.7667 25.325 15.5333 25.2833 15.3 25.2C15.0667 25.1167 14.8583 24.9917 14.675 24.825C13.5917 23.825 12.6333 22.85 11.8 21.9C10.9667 20.95 10.271 20.0293 9.713 19.138C9.155 18.2467 8.73 17.3883 8.438 16.563C8.146 15.7377 8 14.95 8 14.2C8 11.7 8.80433 9.70833 10.413 8.225C12.0217 6.74167 13.884 6 16 6C18.116 6 19.9787 6.74167 21.588 8.225C23.1973 9.70833 24.0013 11.7 24 14.2C24 14.95 23.8543 15.7377 23.563 16.563C23.2717 17.3883 22.8467 18.2467 22.288 19.138C21.7293 20.0293 21.0333 20.95 20.2 21.9C19.3667 22.85 18.4083 23.825 17.325 24.825C17.1417 24.9917 16.9333 25.1167 16.7 25.2C16.4667 25.2833 16.2333 25.325 16 25.325ZM16 16C16.55 16 17.021 15.8043 17.413 15.413C17.805 15.0217 18.0007 14.5507 18 14C17.9993 13.4493 17.8037 12.9787 17.413 12.588C17.0223 12.1973 16.5513 12.0013 16 12C15.4487 11.9987 14.978 12.1947 14.588 12.588C14.198 12.9813 14.002 13.452 14 14C13.998 14.548 14.194 15.019 14.588 15.413C14.982 15.807 15.4527 16.0027 16 16Z" fill="white"/>
</svg>
