<svg width="32" height="32" viewBox="0 0 32 32" fill="none" xmlns="http://www.w3.org/2000/svg">
<rect x="0.5" y="0.5" width="31" height="31" rx="15.5" fill="#336FFA"/>
<rect x="0.5" y="0.5" width="31" height="31" rx="15.5" stroke="white"/>
<path d="M9.74219 13.168C9.73047 15.0898 10.8906 17.0117 12.5195 17.7383L11.8516 18.6172C10.6445 18.043 9.68945 16.8652 9.20312 15.4297C8.71094 16.9648 7.74414 18.2363 6.48438 18.8516L5.80469 17.9141C7.45703 17.1758 8.61719 15.1719 8.61719 13.168V11.375H9.74219V13.168ZM14.582 10.4961V21.0195H13.4688V10.4961H14.582ZM19.9258 12.3828C19.9258 13.7188 20.8516 14.9961 22.457 15.5352L21.8945 16.4023C20.7051 15.9922 19.832 15.1719 19.375 14.1406C18.918 15.2773 18.0098 16.168 16.7734 16.6016L16.1758 15.7344C17.8164 15.1719 18.8008 13.8242 18.8125 12.3711V12.0898H16.5039V11.1875H22.1875V12.0898H19.9258V12.3828ZM24.5078 10.4961V13.1914H26.0312V14.1289H24.5078V16.8242H23.3945V10.4961H24.5078ZM24.5078 17.3398V20.9961H23.3945V18.2422H17.5703V17.3398H24.5078Z" fill="white"/>
</svg>
