<svg width="32" height="32" viewBox="0 0 32 32" fill="none" xmlns="http://www.w3.org/2000/svg">
<rect x="0.5" y="0.5" width="31" height="31" rx="15.5" fill="#18BF81"/>
<rect x="0.5" y="0.5" width="31" height="31" rx="15.5" stroke="white"/>
<path d="M11.2188 11.0586V11.9609H7.45703V13.0742H11.0195V13.9531H7.45703V15.1133C9.38477 15.1074 10.5332 15.0547 11.875 14.8203L11.9922 15.7109C10.5508 15.957 9.32031 16.0039 7.16406 16.0039H6.34375V11.0586H11.2188ZM14.1367 10.4961V12.8867H15.6602V13.8359H14.1367V16.3086H13.0234V10.4961H14.1367ZM8.51172 16.7656V17.9141H13.0234V16.7656H14.1367V20.8672H7.41016V16.7656H8.51172ZM8.51172 19.9648H13.0234V18.7812H8.51172V19.9648ZM21.6133 11.1055C21.6133 12.3594 23.3008 13.5664 25.293 13.8125L24.8828 14.6914C23.207 14.4453 21.7246 13.625 21.0508 12.4883C20.377 13.6309 18.9004 14.4453 17.2188 14.6914L16.7852 13.8125C18.8008 13.5664 20.4766 12.3828 20.4766 11.1055V10.6719H21.6133V11.1055ZM25.832 15.4531V16.3438H16.2578V15.4531H25.832ZM21.0391 17.2344C23.3008 17.2344 24.6602 17.9023 24.6602 19.1094C24.6602 20.3164 23.3008 20.9844 21.0391 20.9961C18.7539 20.9844 17.3945 20.3164 17.3945 19.1094C17.3945 17.9023 18.7539 17.2344 21.0391 17.2344ZM21.0391 18.0898C19.4336 18.0898 18.5195 18.4531 18.5195 19.1094C18.5195 19.7773 19.4336 20.1289 21.0391 20.1172C22.6211 20.1289 23.5469 19.7773 23.5469 19.1094C23.5469 18.4531 22.6211 18.0898 21.0391 18.0898Z" fill="white"/>
</svg>
