<svg width="32" height="32" viewBox="0 0 32 32" fill="none" xmlns="http://www.w3.org/2000/svg">
<rect x="0.5" y="0.5" width="31" height="31" rx="15.5" fill="#616161"/>
<rect x="0.5" y="0.5" width="31" height="31" rx="15.5" stroke="white"/>
<path d="M14.0664 10.4961V14.75H15.7539V15.6758H14.0664V20.9961H12.9648V10.4961H14.0664ZM12.0508 12.1367V13.0508H5.82812V12.1367H8.41797V10.6367H9.53125V12.1367H12.0508ZM8.98047 13.8242C10.4805 13.8242 11.582 14.832 11.5938 16.2617C11.582 17.7031 10.4805 18.6992 8.98047 18.7109C7.46875 18.6992 6.36719 17.7031 6.36719 16.2617C6.36719 14.832 7.46875 13.8242 8.98047 13.8242ZM8.98047 14.7383C8.08984 14.7383 7.42188 15.3594 7.43359 16.2617C7.42188 17.1758 8.08984 17.7852 8.98047 17.7734C9.87109 17.7852 10.5273 17.1758 10.5273 16.2617C10.5273 15.3594 9.87109 14.7383 8.98047 14.7383ZM19.8555 13.8711C19.8555 15.4883 20.8398 17.1992 22.4102 17.9492L21.7773 18.793C20.6348 18.2539 19.7734 17.1582 19.3281 15.875C18.8652 17.2637 17.9512 18.4238 16.75 18.9805L16.1289 18.125C17.7227 17.3984 18.7656 15.6055 18.7656 13.8711V13.1797H16.4453V12.2891H18.7539V10.707H19.8789V12.2891H22.1641V13.1797H19.8555V13.8711ZM24.4375 10.4961V14.7266H26.125V15.6641H24.4375V20.9961H23.3242V10.4961H24.4375Z" fill="white"/>
</svg>
