<svg width="285" height="105" viewBox="0 0 285 105" fill="none" xmlns="http://www.w3.org/2000/svg">
<path d="M18 75C17.475 75 16.95 74.9073 16.425 74.7219C15.9 74.5364 15.4312 74.2583 15.0187 73.8875C12.5812 71.6624 10.425 69.4929 8.55 67.379C6.675 65.2652 5.10975 63.2166 3.85425 61.2333C2.59875 59.25 1.6425 57.3401 0.9855 55.5037C0.3285 53.6673 0 51.9146 0 50.2458C0 44.6831 1.80975 40.2514 5.42925 36.9508C9.04875 33.6503 13.239 32 18 32C22.761 32 26.952 33.6503 30.573 36.9508C34.194 40.2514 36.003 44.6831 36 50.2458C36 51.9146 35.6722 53.6673 35.0167 55.5037C34.3612 57.3401 33.405 59.25 32.148 61.2333C30.891 63.2166 29.325 65.2652 27.45 67.379C25.575 69.4929 23.4187 71.6624 20.9812 73.8875C20.5687 74.2583 20.1 74.5364 19.575 74.7219C19.05 74.9073 18.525 75 18 75ZM18 54.251C19.2375 54.251 20.2972 53.8156 21.1792 52.9448C22.0612 52.0741 22.5015 51.0261 22.5 49.8008C22.4985 48.5755 22.0582 47.5282 21.1792 46.6589C20.3002 45.7897 19.2405 45.3535 18 45.3506C16.7595 45.3476 15.7005 45.7837 14.823 46.6589C13.9455 47.5341 13.5045 48.5814 13.5 49.8008C13.4955 51.0201 13.9365 52.0681 14.823 52.9448C15.7095 53.8215 16.7685 54.2569 18 54.251Z" fill="#939393"/>
<circle cx="18" cy="96" r="9" fill="#939393"/>
<path d="M272.443 0.585786C273.224 -0.195262 274.491 -0.195262 275.272 0.585786L283.758 9.07114C284.538 9.85216 284.538 11.1183 283.758 11.8993L264.984 30.6707L283.689 49.3758C284.47 50.1569 284.47 51.4229 283.689 52.2039L275.204 60.6893C274.423 61.4702 273.157 61.4703 272.376 60.6893L253.671 41.9842L234.967 60.6893C234.186 61.4704 232.92 61.4704 232.138 60.6893L223.653 52.2039C222.872 51.4229 222.872 50.1568 223.653 49.3758L242.357 30.6707L223.586 11.8993C222.805 11.1183 222.805 9.8522 223.586 9.07114L232.071 0.585786C232.852 -0.195262 234.118 -0.195262 234.899 0.585786L253.671 19.3573L272.443 0.585786Z" fill="#EFEFEF"/>
<path d="M18 96H254" stroke="url(#paint0_linear_11559_2134)" stroke-width="4" stroke-dasharray="8 8"/>
<circle cx="254" cy="96" r="9" fill="#EFEFEF"/>
<defs>
<linearGradient id="paint0_linear_11559_2134" x1="18" y1="96.5" x2="254" y2="96.5" gradientUnits="userSpaceOnUse">
<stop stop-color="#939393"/>
<stop offset="1" stop-color="#D9D9D9" stop-opacity="0.7"/>
</linearGradient>
</defs>
</svg>
