<svg width="25" height="24" viewBox="0 0 25 24" fill="none" xmlns="http://www.w3.org/2000/svg">
<rect x="0.5" width="24" height="24" rx="12" fill="#939393"/>
<path d="M18.7987 5.7107C18.4087 5.3207 17.7787 5.3207 17.3887 5.7107L12.4988 10.5907L7.60875 5.7007C7.21875 5.3107 6.58875 5.3107 6.19875 5.7007C5.80875 6.0907 5.80875 6.7207 6.19875 7.1107L11.0888 12.0007L6.19875 16.8907C5.80875 17.2807 5.80875 17.9107 6.19875 18.3007C6.58875 18.6907 7.21875 18.6907 7.60875 18.3007L12.4988 13.4107L17.3887 18.3007C17.7787 18.6907 18.4087 18.6907 18.7987 18.3007C19.1887 17.9107 19.1887 17.2807 18.7987 16.8907L13.9087 12.0007L18.7987 7.1107C19.1787 6.7307 19.1787 6.0907 18.7987 5.7107Z" fill="white"/>
</svg>
