<svg width="24" height="24" viewBox="0 0 24 24"  fill="black" xmlns="http://www.w3.org/2000/svg">
<path d="M10 3C9.71667 3 9.47933 2.904 9.288 2.712C9.09667 2.52 9.00067 2.28267 9 2C8.99933 1.71733 9.09533 1.48 9.288 1.288C9.48067 1.096 9.718 1 10 1H14C14.2833 1 14.521 1.096 14.713 1.288C14.905 1.48 15.0007 1.71733 15 2C14.9993 2.28267 14.9033 2.52033 14.712 2.713C14.5207 2.90567 14.2833 3.00133 14 3H10ZM12 14C12.2833 14 12.521 13.904 12.713 13.712C12.905 13.52 13.0007 13.2827 13 13V9C13 8.71667 12.904 8.47933 12.712 8.288C12.52 8.09667 12.2827 8.00067 12 8C11.7173 7.99933 11.48 8.09533 11.288 8.288C11.096 8.48067 11 8.718 11 9V13C11 13.2833 11.096 13.521 11.288 13.713C11.48 13.905 11.7173 14.0007 12 14ZM12 22C10.7667 22 9.604 21.7627 8.512 21.288C7.42 20.8133 6.466 20.1673 5.65 19.35C4.834 18.5327 4.18833 17.5783 3.713 16.487C3.23767 15.3957 3 14.2333 3 13C3 11.7667 3.23767 10.604 3.713 9.512C4.18833 8.42 4.834 7.466 5.65 6.65C6.466 5.834 7.42033 5.18833 8.513 4.713C9.60567 4.23767 10.768 4 12 4C13.0333 4 14.025 4.16667 14.975 4.5C15.925 4.83333 16.8167 5.31667 17.65 5.95L18.35 5.25C18.5333 5.06667 18.7667 4.975 19.05 4.975C19.3333 4.975 19.5667 5.06667 19.75 5.25C19.9333 5.43333 20.025 5.66667 20.025 5.95C20.025 6.23333 19.9333 6.46667 19.75 6.65L19.05 7.35C19.6833 8.18333 20.1667 9.075 20.5 10.025C20.8333 10.975 21 11.9667 21 13C21 14.2333 20.7623 15.396 20.287 16.488C19.8117 17.58 19.166 18.534 18.35 19.35C17.534 20.166 16.5797 20.812 15.487 21.288C14.3943 21.764 13.232 22.0013 12 22ZM12 20C13.9333 20 15.5833 19.3167 16.95 17.95C18.3167 16.5833 19 14.9333 19 13C19 11.0667 18.3167 9.41667 16.95 8.05C15.5833 6.68333 13.9333 6 12 6C10.0667 6 8.41667 6.68333 7.05 8.05C5.68333 9.41667 5 11.0667 5 13C5 14.9333 5.68333 16.5833 7.05 17.95C8.41667 19.3167 10.0667 20 12 20Z"   />
</svg>
