<svg width="64" height="64" viewBox="0 0 64 64" fill="none" xmlns="http://www.w3.org/2000/svg">
<circle cx="32" cy="32" r="32" fill="#EFEFEF"/>
<path d="M21.5 44.25V45.125C21.5 45.8542 21.2451 46.4742 20.7353 46.9852C20.2254 47.4963 19.6053 47.7512 18.875 47.75C18.1447 47.7488 17.5252 47.4939 17.0165 46.9852C16.5078 46.4766 16.2523 45.8565 16.25 45.125V32.6125C16.25 32.4083 16.2646 32.2042 16.2938 32C16.3229 31.7958 16.3667 31.6063 16.425 31.4313L19.7062 22.1125C19.9396 21.4125 20.3625 20.8438 20.975 20.4062C21.5875 19.9688 22.2729 19.75 23.0312 19.75H40.9688C41.7271 19.75 42.4125 19.9688 43.025 20.4062C43.6375 20.8438 44.0604 21.4125 44.2937 22.1125L47.575 31.4313C47.6333 31.6063 47.6771 31.7958 47.7063 32C47.7354 32.2042 47.75 32.4083 47.75 32.6125V45.125C47.75 45.8542 47.4951 46.4742 46.9852 46.9852C46.4754 47.4963 45.8553 47.7512 45.125 47.75C44.3947 47.7488 43.7752 47.4939 43.2665 46.9852C42.7578 46.4766 42.5023 45.8565 42.5 45.125V44.25H21.5ZM21.15 28.5H42.85L41.0125 23.25H22.9875L21.15 28.5ZM24.125 39C24.8542 39 25.4742 38.7451 25.9852 38.2352C26.4962 37.7254 26.7512 37.1053 26.75 36.375C26.7488 35.6447 26.4939 35.0252 25.9852 34.5165C25.4766 34.0078 24.8565 33.7523 24.125 33.75C23.3935 33.7477 22.774 34.0032 22.2665 34.5165C21.759 35.0298 21.5035 35.6493 21.5 36.375C21.4965 37.1007 21.752 37.7207 22.2665 38.2352C22.781 38.7498 23.4005 39.0047 24.125 39ZM39.875 39C40.6042 39 41.2242 38.7451 41.7352 38.2352C42.2463 37.7254 42.5012 37.1053 42.5 36.375C42.4988 35.6447 42.2439 35.0252 41.7352 34.5165C41.2266 34.0078 40.6065 33.7523 39.875 33.75C39.1435 33.7477 38.524 34.0032 38.0165 34.5165C37.509 35.0298 37.2535 35.6493 37.25 36.375C37.2465 37.1007 37.502 37.7207 38.0165 38.2352C38.531 38.7498 39.1505 39.0047 39.875 39Z" fill="#616161"/>
</svg>
