<svg width="24" height="24" viewBox="0 0 24 24"  fill="black" xmlns="http://www.w3.org/2000/svg">
<path d="M12 18.5C10 18.5 8.18767 17.9083 6.563 16.725C4.93833 15.5417 3.75067 13.9667 3 12C3.75 10.0333 4.93767 8.45833 6.563 7.275C8.18833 6.09167 10.0007 5.5 12 5.5C13.9993 5.5 15.812 6.09167 17.438 7.275C19.064 8.45833 20.2513 10.0333 21 12C20.25 13.9667 19.0627 15.5417 17.438 16.725C15.8133 17.9083 14.0007 18.5 12 18.5ZM12 16.5C13.4667 16.5 14.8083 16.1 16.025 15.3C17.2417 14.5 18.175 13.4 18.825 12C18.175 10.6 17.2417 9.5 16.025 8.7C14.8083 7.9 13.4667 7.5 12 7.5C10.5333 7.5 9.19167 7.9 7.975 8.7C6.75833 9.5 5.825 10.6 5.175 12C5.825 13.4 6.75833 14.5 7.975 15.3C9.19167 16.1 10.5333 16.5 12 16.5ZM12 15.5C12.9667 15.5 13.7917 15.1583 14.475 14.475C15.1583 13.7917 15.5 12.9667 15.5 12C15.5 11.0333 15.1583 10.2083 14.475 9.525C13.7917 8.84167 12.9667 8.5 12 8.5C11.0333 8.5 10.2083 8.84167 9.525 9.525C8.84167 10.2083 8.5 11.0333 8.5 12C8.5 12.9667 8.84167 13.7917 9.525 14.475C10.2083 15.1583 11.0333 15.5 12 15.5ZM12 13.5C11.5833 13.5 11.229 13.3543 10.937 13.063C10.645 12.7717 10.4993 12.4173 10.5 12C10.5007 11.5827 10.6467 11.2287 10.938 10.938C11.2293 10.6473 11.5833 10.5013 12 10.5C12.4167 10.4987 12.771 10.6447 13.063 10.938C13.355 11.2313 13.5007 11.5853 13.5 12C13.4993 12.4147 13.3537 12.769 13.063 13.063C12.7723 13.357 12.418 13.5027 12 13.5Z"  />
</svg>
