<svg width="32" height="32" viewBox="0 0 32 32"  fill="black" xmlns="http://www.w3.org/2000/svg">
<rect width="32" height="32" fill="white"/>
<rect x="4" y="4" width="24" height="24" rx="12" stroke="black" stroke-width="2"/>
<path d="M13.2885 18.775L21.7635 10.3C21.9635 10.1 22.1968 10 22.4635 10C22.7301 10 22.9635 10.1 23.1635 10.3C23.3635 10.5 23.4635 10.7377 23.4635 11.013C23.4635 11.2883 23.3635 11.5257 23.1635 11.725L13.9885 20.925C13.7885 21.125 13.5551 21.225 13.2885 21.225C13.0218 21.225 12.7885 21.125 12.5885 20.925L8.28846 16.625C8.08846 16.425 7.99246 16.1877 8.00046 15.913C8.00846 15.6383 8.11279 15.4007 8.31346 15.2C8.51413 14.9993 8.75179 14.8993 9.02646 14.9C9.30113 14.9007 9.53846 15.0007 9.73846 15.2L13.2885 18.775Z"  />
</svg>
