<svg width="32" height="32" viewBox="0 0 32 32" fill="none" xmlns="http://www.w3.org/2000/svg">
<path d="M8 25.3337V26.0003C8 26.5559 7.80578 27.0283 7.41733 27.4177C7.02889 27.807 6.55644 28.0012 6 28.0003C5.44356 27.9994 4.97156 27.8052 4.584 27.4177C4.19644 27.0301 4.00178 26.5577 4 26.0003V16.467C4 16.3114 4.01111 16.1559 4.03333 16.0003C4.05556 15.8448 4.08889 15.7003 4.13333 15.567L6.63333 8.46699C6.81111 7.93366 7.13333 7.50033 7.6 7.16699C8.06667 6.83366 8.58889 6.66699 9.16667 6.66699H22.8333C23.4111 6.66699 23.9333 6.83366 24.4 7.16699C24.8667 7.50033 25.1889 7.93366 25.3667 8.46699L27.8667 15.567C27.9111 15.7003 27.9444 15.8448 27.9667 16.0003C27.9889 16.1559 28 16.3114 28 16.467V26.0003C28 26.5559 27.8058 27.0283 27.4173 27.4177C27.0289 27.807 26.5564 28.0012 26 28.0003C25.4436 27.9994 24.9716 27.8052 24.584 27.4177C24.1964 27.0301 24.0018 26.5577 24 26.0003V25.3337H8ZM7.73333 13.3337H24.2667L22.8667 9.33366H9.13333L7.73333 13.3337ZM10 21.3337C10.5556 21.3337 11.028 21.1394 11.4173 20.751C11.8067 20.3625 12.0009 19.8901 12 19.3337C11.9991 18.7772 11.8049 18.3052 11.4173 17.9177C11.0298 17.5301 10.5573 17.3354 10 17.3337C9.44267 17.3319 8.97067 17.5265 8.584 17.9177C8.19733 18.3088 8.00267 18.7808 8 19.3337C7.99733 19.8865 8.192 20.359 8.584 20.751C8.976 21.143 9.448 21.3372 10 21.3337ZM22 21.3337C22.5556 21.3337 23.028 21.1394 23.4173 20.751C23.8067 20.3625 24.0009 19.8901 24 19.3337C23.9991 18.7772 23.8049 18.3052 23.4173 17.9177C23.0298 17.5301 22.5573 17.3354 22 17.3337C21.4427 17.3319 20.9707 17.5265 20.584 17.9177C20.1973 18.3088 20.0027 18.7808 20 19.3337C19.9973 19.8865 20.192 20.359 20.584 20.751C20.976 21.143 21.448 21.3372 22 21.3337Z"  />
</svg>
