<svg width="32" height="32" viewBox="0 0 32 32" fill="none" xmlns="http://www.w3.org/2000/svg">
<path d="M14.7 17.3V21.2C14.7 21.5683 14.8248 21.8773 15.0744 22.1269C15.324 22.3765 15.6325 22.5009 16 22.5C16.3675 22.4991 16.6764 22.3743 16.9269 22.1256C17.1774 21.8769 17.3017 21.5683 17.3 21.2V17.3H21.2C21.5683 17.3 21.8773 17.1752 22.1269 16.9256C22.3765 16.676 22.5009 16.3675 22.5 16C22.4991 15.6325 22.3743 15.324 22.1256 15.0744C21.8769 14.8248 21.5683 14.7 21.2 14.7H17.3V10.8C17.3 10.4317 17.1752 10.1231 16.9256 9.8744C16.676 9.62566 16.3675 9.50086 16 9.5C15.6325 9.49913 15.324 9.62393 15.0744 9.8744C14.8248 10.1249 14.7 10.4334 14.7 10.8V14.7H10.8C10.4317 14.7 10.1231 14.8248 9.8744 15.0744C9.62566 15.324 9.50086 15.6325 9.5 16C9.49913 16.3675 9.62393 16.6764 9.8744 16.9269C10.1249 17.1774 10.4334 17.3017 10.8 17.3H14.7ZM16 29C14.2017 29 12.5117 28.6585 10.93 27.9756C9.34833 27.2927 7.9725 26.3666 6.8025 25.1975C5.6325 24.0284 4.70647 22.6525 4.0244 21.07C3.34233 19.4875 3.00087 17.7975 3 16C2.99913 14.2025 3.3406 12.5125 4.0244 10.93C4.7082 9.34747 5.63423 7.97163 6.8025 6.8025C7.97077 5.63337 9.3466 4.70733 10.93 4.0244C12.5134 3.34147 14.2034 3 16 3C17.7966 3 19.4866 3.34147 21.07 4.0244C22.6534 4.70733 24.0292 5.63337 25.1975 6.8025C26.3658 7.97163 27.2922 9.34747 27.9769 10.93C28.6616 12.5125 29.0026 14.2025 29 16C28.9974 17.7975 28.6559 19.4875 27.9756 21.07C27.2953 22.6525 26.3692 24.0284 25.1975 25.1975C24.0258 26.3666 22.6499 27.2931 21.07 27.9769C19.4901 28.6607 17.8001 29.0017 16 29Z" fill="black"/>
</svg>
